<svg
   width="105mm"
   height="32mm"
   viewBox="0 0 105 32"
   version="1.1"
   id="svg877"
   xmlns="http://www.w3.org/2000/svg"
   xmlns:svg="http://www.w3.org/2000/svg">
  <defs
     id="defs874" />
  <g
     id="layer1"
     transform="translate(13.180912,-58.250003)">
    <path
       d="m 16.819054,66.25001 c 0,13.83011 -8.495866,21.54029 -13.846173,23.76922 -0.738459,0.30769 -1.569226,0.30769 -2.307684,0 -6.69018,-2.78718 -13.846109,-11.3638 -13.846109,-23.76922 -2e-6,-1.21112 0.728227,-2.30345 1.846186,-2.76925 L 0.66526,58.48077 c 0.738459,-0.30769 1.569226,-0.30769 2.307684,0 l 11.999987,4.99999 c 1.117935,0.46582 1.846134,1.55815 1.846123,2.76925 z"
       id="path824-2"
       style="fill:#106cd5;fill-opacity:1;stroke-width:0.0624999" />
    <g
       aria-label="1VPN"
       id="text1481"
       transform="translate(-78.929235,-235.03043)">
      <path
         d="m 113.98501,317.66524 v -16.76961 c 0,-0.65134 -0.35778,-1.00911 -1.00911,-1.00911 h -1.55037 c -0.48621,0 -0.83481,0.10091 -1.24763,0.36694 l -3.44015,2.21088 c -0.46786,0.30273 -0.66051,0.66968 -0.66051,1.21093 v 0.88068 c 0,0.81647 0.53208,1.11003 1.22011,0.66969 l 3.17411,-2.0274 h 0.11009 v 14.467 c 0,0.65134 0.35777,1.00911 1.00911,1.00911 h 1.38524 c 0.65133,0 1.00911,-0.35777 1.00911,-1.00911 z"
         id="path7429"
         style="fill:#000000;fill-opacity:1;stroke-width:0.0165364;opacity:0.8" />
      <path
         d="m 126.66371,314.6746 -4.61439,-13.96245 c -0.18348,-0.56877 -0.5596,-0.82563 -1.14672,-0.82563 h -1.63293 c -0.74307,0 -1.07332,0.45868 -0.82563,1.15589 l 5.92624,16.81548 c 0.19265,0.5596 0.5596,0.81646 1.14672,0.81646 h 2.47691 c 0.58712,0 0.95407,-0.25686 1.14672,-0.81646 l 5.93541,-16.81548 c 0.24769,-0.69721 -0.0826,-1.15589 -0.82563,-1.15589 h -1.6421 c -0.58713,0 -0.96325,0.25686 -1.14672,0.82563 l -4.60523,13.96245 z"
         id="path7431"
         style="fill:#000000;fill-opacity:1;stroke-width:0.0165364;opacity:0.8" />
      <path
         d="m 138.26908,300.89563 v 16.76961 c 0,0.65134 0.35777,1.00911 1.00911,1.00911 h 1.38523 c 0.65134,0 1.00912,-0.35777 1.00912,-1.00911 v -5.33912 h 3.59611 c 4.33918,0 6.66931,-2.60535 6.66931,-6.2198 0,-3.58694 -2.30261,-6.2198 -6.62344,-6.2198 h -6.03633 c -0.65134,0 -1.00911,0.35777 -1.00911,1.00911 z m 3.40346,8.6325 v -6.79775 h 3.11907 c 2.5503,0 3.67868,1.37606 3.67868,3.37594 0,1.99987 -1.12838,3.42181 -3.66033,3.42181 z"
         id="path7433"
         style="fill:#000000;fill-opacity:1;stroke-width:0.0165364;opacity:0.8" />
      <path
         d="m 170.6438,317.66524 v -16.76961 c 0,-0.65134 -0.35777,-1.00911 -1.00911,-1.00911 h -1.36689 c -0.65133,0 -1.00911,0.35777 -1.00911,1.00911 v 11.79744 h -0.16513 l -8.40315,-12.16439 c -0.30274,-0.44034 -0.67886,-0.64216 -1.22011,-0.64216 h -1.2568 c -0.65134,0 -1.00912,0.35777 -1.00912,1.00911 v 16.76961 c 0,0.65134 0.35778,1.00911 1.00912,1.00911 h 1.38523 c 0.65134,0 1.00911,-0.35777 1.00911,-1.00911 v -11.78827 h 0.15596 l 8.41233,12.15522 c 0.3119,0.44034 0.67885,0.64216 1.22011,0.64216 h 1.23845 c 0.65134,0 1.00911,-0.35777 1.00911,-1.00911 z"
         id="path7435"
         style="fill:#000000;fill-opacity:1;stroke-width:0.0165364;opacity:0.8" />
    </g>
    <rect
       style="font-weight:bold;font-size:118.181px;line-height:1.25;font-family:Quicksand;-inkscape-font-specification:'Quicksand Bold';letter-spacing:3.96875px;fill:#ffffff;fill-opacity:1;stroke:none;stroke-width:0.370689;stop-color:#000000"
       id="rect93143"
       width="3.3070829"
       height="12.755891"
       x="0.16552971"
       y="67.872063"
       ry="0.94488078" />
  </g>
</svg>
