<?xml version="1.0" encoding="UTF-8" standalone="no"?>
<svg
   height="34.428131"
   width="35.999992"
   version="1.1"
   id="Capa_1"
   viewBox="0 0 2.1572995 2.0631058"
   xml:space="preserve"
   xmlns="http://www.w3.org/2000/svg"
   xmlns:svg="http://www.w3.org/2000/svg"><defs
   id="defs7" />
<path
   style="fill:#c4cbd3;stroke-width:0.0450002;fill-opacity:1"
   d="m 1.182803,0.06476625 0.2433161,0.4930223 c 0.01692,0.03429 0.049635,0.05805 0.08748,0.06354 l 0.5440975,0.079065 c 0.09531,0.01386 0.1333356,0.1309506 0.064395,0.1981359 L 1.7283855,1.2822919 c -0.02736,0.026685 -0.03987,0.06516 -0.03339,0.1028254 l 0.092925,0.5418925 c 0.01629,0.094905 -0.08334,0.1672658 -0.1685707,0.1224905 L 1.1327177,1.7936741 c -0.03384,-0.017775 -0.074295,-0.017775 -0.1081355,0 L 0.53795003,2.0495003 C 0.45271964,2.0943206 0.35308919,2.0219153 0.36937926,1.9270098 l 0.0929254,-0.5418925 c 0.00648,-0.037665 -0.00603,-0.07614 -0.0333902,-0.1028254 L 0.03520774,0.89853005 C -0.03373258,0.83129975 0.0042926,0.71420925 0.09960303,0.70039415 l 0.54409748,-0.079065 c 0.0378452,-0.00549 0.0705603,-0.02925 0.0874804,-0.06354 l 0.24331611,-0.4930229 c 0.0425702,-0.086355 0.16569078,-0.086355 0.20830598,0 z"
   id="path2" />
</svg>
